HIERARCHY
ROOT Hips
{
 OFFSET 0.000000 0.000000 0.000000
 CHANNELS 6 Xposition Yposition Zposition Yrotation Xrotation Zrotation
 JOINT Chest
 {
  OFFSET 0.000000 9.585900 0.002600
  CHANNELS 3 Yrotation Xrotation Zrotation
  JOINT Chest2
  {
   OFFSET 0.000000 9.601200 -0.005300
   CHANNELS 3 Yrotation Xrotation Zrotation
   JOINT Chest3
   {
    OFFSET 0.000000 9.561800 0.000000
    CHANNELS 3 Yrotation Xrotation Zrotation
    JOINT Chest4
    {
     OFFSET 0.000000 9.552100 0.000000
     CHANNELS 3 Yrotation Xrotation Zrotation
     JOINT Neck
     {
      OFFSET 0.000000 14.453000 0.000000
      CHANNELS 3 Yrotation Xrotation Zrotation
      JOINT Head
      {
       OFFSET 0.000000 8.936500 -0.011300
       CHANNELS 3 Yrotation Xrotation Zrotation
       End Site
       {
        OFFSET 0.000000 17.073600 -0.006000
       }
      }
     }
     JOINT RightCollar
     {
      OFFSET -2.921100 9.558500 0.000000
      CHANNELS 3 Yrotation Xrotation Zrotation
      JOINT RightShoulder
      {
       OFFSET -13.519700 0.000000 0.000000
       CHANNELS 3 Yrotation Xrotation Zrotation
       JOINT RightElbow
       {
        OFFSET 0.000000 -29.696600 0.000000
        CHANNELS 3 Yrotation Xrotation Zrotation
        JOINT RightWrist
        {
         OFFSET 0.000000 -24.004700 0.000000
         CHANNELS 3 Yrotation Xrotation Zrotation
         End Site
         {
          OFFSET 0.000000 -17.728500 0.000000
         }
        }
       }
      }
     }
     JOINT LeftCollar
     {
      OFFSET 2.921100 9.558500 0.000000
      CHANNELS 3 Yrotation Xrotation Zrotation
      JOINT LeftShoulder
      {
       OFFSET 13.519700 0.000000 0.000000
       CHANNELS 3 Yrotation Xrotation Zrotation
       JOINT LeftElbow
       {
        OFFSET 0.000000 -29.696600 0.000000
        CHANNELS 3 Yrotation Xrotation Zrotation
        JOINT LeftWrist
        {
         OFFSET 0.000000 -24.004700 0.000000
         CHANNELS 3 Yrotation Xrotation Zrotation
         End Site
         {
          OFFSET 0.000000 -17.728500 0.000000
         }
        }
       }
      }
     }
    }
   }
  }
 }
 JOINT RightHip
 {
  OFFSET -7.771700 -0.012900 -0.001300
  CHANNELS 3 Yrotation Xrotation Zrotation
  JOINT RightKnee
  {
   OFFSET 0.000000 -40.869800 0.001200
   CHANNELS 3 Yrotation Xrotation Zrotation
   JOINT RightAnkle
   {
    OFFSET 0.000000 -39.717900 0.002100
    CHANNELS 3 Yrotation Xrotation Zrotation
    JOINT RightToe
    {
     OFFSET 0.000000 -4.965400 11.033500
     CHANNELS 3 Yrotation Xrotation Zrotation
     End Site
     {
      OFFSET 0.000000 -1.423100 5.872300
     }
    }
   }
  }
 }
 JOINT LeftHip
 {
  OFFSET 7.771700 -0.012900 -0.001300
  CHANNELS 3 Yrotation Xrotation Zrotation
  JOINT LeftKnee
  {
   OFFSET 0.000000 -40.869800 0.001200
   CHANNELS 3 Yrotation Xrotation Zrotation
   JOINT LeftAnkle
   {
    OFFSET 0.000000 -39.717900 0.002100
    CHANNELS 3 Yrotation Xrotation Zrotation
    JOINT LeftToe
    {
     OFFSET 0.000000 -4.965400 11.033500
     CHANNELS 3 Yrotation Xrotation Zrotation
     End Site
     {
      OFFSET 0.000000 -1.423100 5.872300
     }
    }
   }
  }
 }
}
MOTION
Frames: 16
Frame Time: 0.008333
0.000000 85.388000 0.000000 0.000000 -5.767877 0.000000 0.000000 11.653817 0.000000 0.000000 -5.885947 0.000000 0.000000 -0.000000 0.000000 0.000000 -0.000000 0.000000 0.000000 12.528835 0.000000 0.000000 0.711642 0.000000 0.000000 -0.000000 0.000000 0.000000 0.000000 -90.000000 0.000000 -2.309062 0.000000 0.000000 2.309062 0.000000 0.000000 -0.000000 0.000000 0.000000 -0.000000 90.000000 0.000000 -2.309062 0.000000 0.000000 2.309062 0.000000 0.000000 8.520406 0.000000 0.000000 1.905762 0.000000 -0.000000 -4.658285 0.000000 0.000000 -0.000000 0.000000 0.000000 8.520406 0.000000 0.000000 1.905762 0.000000 -0.000000 -4.658285 0.000000 0.000000 -0.000000 0.000000
-17.816590 58.091002 27.202763 167.959113 -31.981516 -1.842121 6.230462 20.947809 2.133758 0.777000 2.888502 0.026316 1.261569 4.689226 0.060842 4.972496 17.889391 0.807361 -2.416928 13.810771 0.448998 -4.651767 -9.899343 1.823791 6.766072 0.492409 1.145768 29.424561 -39.145991 -18.969863 45.526105 -20.761256 -9.335302 9.248486 0.234405 -44.174258 -10.072773 -3.098960 -2.049495 -21.998558 -34.264785 10.322177 -50.970202 -24.384692 16.103421 -26.320521 1.436607 34.797087 11.063891 -41.082348 6.016469 -3.738276 72.105274 -3.241032 -1.425294 3.502970 2.479840 -0.016085 0.122858 -0.005386 -3.232251 -42.417439 2.178038 27.258826 74.667519 27.464293 -26.739250 -3.200901 -1.495187 -0.551614 -1.085203 -0.272130
-17.816733 58.088934 27.209444 167.949431 -31.994218 -1.846511 6.228240 20.920324 2.134302 0.784172 2.906339 0.029383 1.244541 4.631994 0.051034 4.970744 17.870241 0.801096 -2.418076 13.844149 0.441120 -4.716993 -10.005343 1.782205 6.779203 0.575187 1.191815 29.273753 -38.913466 -18.994138 45.301174 -21.314280 -9.605163 9.115040 0.153648 -43.870573 -10.045976 -2.974406 -2.081552 -21.586548 -34.122637 10.244895 -50.559168 -24.966684 16.075766 -26.213198 1.194591 34.744659 11.085045 -41.080981 6.018900 -3.812295 72.097230 -3.298074 -1.411287 3.532902 2.481786 -0.022593 0.118133 -0.005913 -3.254085 -42.406652 2.184894 27.293214 74.661808 27.507175 -26.715504 -3.204261 -1.510434 -0.524930 -1.077120 -0.267149
-17.812787 58.088172 27.215458 167.938855 -32.026160 -1.875649 6.238334 20.911088 2.164824 0.770605 2.864733 0.022044 1.267799 4.699932 0.062308 4.963055 17.848445 0.793828 -2.436860 13.814553 0.427908 -4.756334 -10.064744 1.760976 6.777192 0.596318 1.221013 29.092414 -38.670441 -19.013102 45.129005 -21.896618 -9.887262 8.991529 0.082848 -43.554299 -10.022760 -2.901859 -2.126403 -21.205267 -33.995467 10.190811 -50.153358 -25.520934 16.030908 -26.102422 0.934414 34.704220 11.069535 -41.058373 6.069863 -3.870269 72.079220 -3.348019 -1.396114 3.562805 2.478734 -0.025704 0.107910 -0.002843 -3.300818 -42.376764 2.225673 27.360429 74.651154 27.599357 -26.739864 -3.212654 -1.556248 -0.480573 -1.078200 -0.255376
-17.813374 58.086899 27.221198 167.929605 -32.057486 -1.881241 6.238448 20.905093 2.170330 0.770505 2.863558 0.021546 1.267692 4.697739 0.061024 4.974564 17.876692 0.800123 -2.464223 13.763447 0.414129 -4.784129 -10.101078 1.749835 6.768469 0.597440 1.244981 28.875797 -38.423388 -19.018126 45.018164 -22.490081 -10.181544 8.875807 0.004458 -43.239210 -10.006238 -2.869806 -2.153345 -20.843811 -33.858566 10.124653 -49.748128 -26.047487 15.979864 -25.989619 0.669083 34.655637 11.073504 -41.034654 6.083146 -3.882674 72.069880 -3.352966 -1.386865 3.582931 2.472610 -0.032958 0.108836 0.002765 -3.320439 -42.347294 2.236221 27.423733 74.641069 27.668138 -26.747063 -3.210548 -1.574686 -0.485543 -1.078020 -0.247553
-17.815029 58.086883 27.224413 167.915209 -32.105932 -1.877323 6.239815 20.917709 2.170236 0.769945 2.862352 0.021206 1.270976 4.694853 0.059410 4.977257 17.873380 0.797570 -2.487121 13.745498 0.409049 -4.810482 -10.136939 1.738765 6.764425 0.630279 1.281412 28.628494 -38.177665 -19.005661 44.967845 -23.081280 -10.485253 8.762171 -0.084932 -42.932922 -9.983412 -2.814280 -2.167372 -20.519058 -33.711039 10.063961 -49.358950 -26.550401 15.934432 -25.873325 0.418849 34.592017 11.093553 -40.993644 6.089245 -3.931945 72.063318 -3.392575 -1.369272 3.600225 2.471801 -0.029662 0.108637 0.006177 -3.320390 -42.298271 2.229214 27.491375 74.627844 27.744888 -26.751812 -3.205071 -1.592615 -0.492445 -1.078002 -0.232463
-17.817781 58.085213 27.229620 167.898514 -32.137401 -1.870358 6.243321 20.922926 2.167922 0.765362 2.853554 0.020416 1.272790 4.691051 0.058431 4.973567 17.870615 0.794889 -2.505277 13.727597 0.401771 -4.835058 -10.174356 1.725654 6.765173 0.663947 1.314331 28.364417 -37.932138 -18.980343 44.965712 -23.668376 -10.796920 8.652794 -0.177061 -42.641210 -9.947656 -2.762451 -2.182597 -20.244565 -33.553725 10.023347 -48.999131 -27.028713 15.903447 -25.753063 0.184768 34.507054 11.125022 -40.971913 6.091575 -3.999405 72.056801 -3.456371 -1.354386 3.617096 2.484964 -0.033413 0.110636 0.003760 -3.316421 -42.270126 2.228320 27.528890 74.622140 27.785573 -26.775793 -3.195106 -1.587864 -0.479212 -1.087727 -0.244831
-17.822816 58.083009 27.234412 167.888134 -32.164128 -1.853919 6.244936 20.942022 2.156513 0.757294 2.837499 0.019080 1.247656 4.647205 0.054355 4.986597 17.899367 0.796150 -2.517204 13.709934 0.392548 -4.829593 -10.166174 1.715196 6.767551 0.698104 1.343150 28.102310 -37.681910 -18.950263 44.999071 -24.249128 -11.122270 8.553092 -0.263258 -42.359521 -9.902128 -2.713621 -2.199271 -20.025866 -33.387878 10.009545 -48.659404 -27.484891 15.887250 -25.632212 -0.033082 34.385297 11.214669 -40.958523 6.029777 -4.039141 72.057382 -3.441713 -1.352594 3.630136 2.486762 -0.026022 0.115603 -0.002183 -3.314809 -42.244969 2.199886 27.622879 74.607898 27.878442 -26.745751 -3.186507 -1.589196 -0.491289 -1.091326 -0.248421
-17.825841 58.080906 27.238765 167.877531 -32.191919 -1.848181 6.239217 20.939435 2.151537 0.757106 2.841602 0.022688 1.246445 4.647072 0.054765 4.977284 17.891418 0.789422 -2.528332 13.690448 0.383625 -4.873992 -10.243250 1.692349 6.763296 0.729722 1.368645 27.855305 -37.426429 -18.920794 45.064002 -24.815510 -11.467385 8.470640 -0.332879 -42.070260 -9.861083 -2.672284 -2.213850 -19.855991 -33.209425 10.024345 -48.331101 -27.932815 15.881624 -25.511530 -0.218859 34.215572 11.265484 -40.941430 6.006746 -4.061059 72.054939 -3.436436 -1.350262 3.640327 2.491695 -0.023668 0.117286 -0.003738 -3.314025 -42.218252 2.195391 27.639784 74.600303 27.902075 -26.764776 -3.181843 -1.596439 -0.508464 -1.084344 -0.241119
-17.827998 58.078694 27.242574 167.869014 -32.218779 -1.846063 6.232287 20.940639 2.152231 0.758097 2.843035 0.024793 1.246982 4.649229 0.055360 4.955743 17.869336 0.795821 -2.532488 13.681790 0.354978 -4.918424 -10.330429 1.665098 6.779965 0.775434 1.365481 27.603419 -37.171148 -18.882177 45.166235 -25.363425 -11.833444 8.409574 -0.383539 -41.762800 -9.821583 -2.629122 -2.243266 -19.718715 -33.012232 10.063478 -48.026758 -28.385019 15.884453 -25.387285 -0.363703 34.004420 11.314424 -40.923852 5.991451 -4.082729 72.051551 -3.438194 -1.344429 3.643001 2.499558 -0.031766 0.123697 -0.000009 -3.310864 -42.192962 2.194262 27.644890 74.597178 27.911735 -26.767092 -3.174509 -1.601173 -0.478340 -1.084343 -0.237503
-17.829671 58.075730 27.246703 167.870709 -32.237501 -1.849489 6.219316 20.936160 2.156607 0.766895 2.860790 0.021759 1.239467 4.635331 0.057465 4.952196 17.872282 0.797365 -2.550879 13.646406 0.336032 -4.946943 -10.396324 1.638196 6.777073 0.792740 1.370463 27.367741 -36.908062 -18.846132 45.307532 -25.891195 -12.218089 8.369167 -0.422273 -41.444219 -9.788118 -2.603269 -2.262080 -19.638976 -32.803338 10.137144 -47.755546 -28.839009 15.902618 -25.260729 -0.479479 33.760292 11.354767 -40.914026 5.974340 -4.077391 72.049831 -3.411918 -1.352309 3.643961 2.507294 -0.038516 0.129667 0.002764 -3.332105 -42.176161 2.202780 27.679721 74.592183 27.939820 -26.761316 -3.170501 -1.613671 -0.446824 -1.081800 -0.228573
-17.829979 58.072551 27.250469 167.872129 -32.254325 -1.856371 6.210816 20.930819 2.162710 0.766436 2.861706 0.022053 1.238349 4.640219 0.060109 4.955535 17.880803 0.795305 -2.575121 13.604645 0.319927 -4.974239 -10.465846 1.605238 6.749772 0.801326 1.387581 27.165507 -36.634726 -18.820258 45.486797 -26.400524 -12.616315 8.348916 -0.447710 -41.129582 -9.755678 -2.586130 -2.269964 -19.587463 -32.579646 10.223197 -47.523939 -29.288964 15.952447 -25.144015 -0.585390 33.491667 11.389412 -40.906663 5.962187 -4.047931 72.049027 -3.360160 -1.371042 3.645356 2.511975 -0.035527 0.134831 0.001410 -3.363137 -42.159391 2.218992 27.745546 74.581710 27.998988 -26.765959 -3.175592 -1.635035 -0.434923 -1.076349 -0.218650
-17.830852 58.069381 27.252973 167.867899 -32.272431 -1.851143 6.205615 20.928872 2.161638 0.752712 2.850704 0.029210 1.252635 4.665242 0.052359 4.955181 17.880241 0.794512 -2.601067 13.566379 0.303883 -5.000810 -10.538183 1.564750 6.682577 0.816998 1.418710 27.015633 -36.356674 -18.812121 45.702806 -26.895450 -13.024436 8.342219 -0.456490 -40.825552 -9.729971 -2.567601 -2.274256 -19.536831 -32.343174 10.316637 -47.346712 -29.743174 16.043887 -25.051044 -0.679670 33.210701 11.422844 -40.896752 5.944889 -4.018981 72.052429 -3.315673 -1.385961 3.641938 2.514195 -0.031675 0.138888 -0.002470 -3.385151 -42.144877 2.232491 27.779726 74.583387 28.014137 -26.772075 -3.167701 -1.629215 -0.438290 -1.077582 -0.220645
-17.830117 58.065249 27.256482 167.866642 -32.279444 -1.854135 6.185949 20.911740 2.170332 0.763682 2.863172 0.024726 1.252836 4.673101 0.048600 4.941480 17.881493 0.799727 -2.612398 13.525014 0.274815 -5.029400 -10.610720 1.520717 6.682705 0.823904 1.412722 26.790455 -36.085109 -18.768321 45.951912 -27.378172 -13.440035 8.338817 -0.455479 -40.534755 -9.687323 -2.552872 -2.288779 -19.480874 -32.095170 10.412131 -47.234178 -30.210417 16.168378 -24.981451 -0.751286 32.928738 11.428741 -40.897429 5.946687 -3.989626 72.054257 -3.283083 -1.396823 3.639870 2.513596 -0.032308 0.144665 -0.001491 -3.447481 -42.143542 2.274905 27.846424 74.584668 28.049029 -26.800743 -3.160678 -1.632105 -0.439335 -1.081083 -0.222691
-17.827241 58.062884 27.256788 167.856395 -32.305543 -1.857272 6.197475 20.932870 2.183534 0.761862 2.858359 0.028247 1.244771 4.662056 0.060606 4.936747 17.895171 0.795218 -2.627543 13.487222 0.243285 -5.060252 -10.682732 1.476634 6.671821 0.834668 1.407343 26.557457 -35.817718 -18.717700 46.228256 -27.851082 -13.855149 8.334504 -0.455439 -40.263951 -9.649952 -2.531680 -2.298395 -19.406710 -31.844045 10.495752 -47.192244 -30.682330 16.314913 -24.918393 -0.807912 32.663894 11.458984 -40.881771 5.943134 -3.994589 72.056950 -3.261491 -1.402725 3.641772 2.510091 -0.032075 0.144207 -0.001995 -3.453515 -42.118488 2.288735 27.833137 74.595374 28.039660 -26.790876 -3.172476 -1.638606 -0.440325 -1.072866 -0.216553
-17.826586 58.059481 27.257469 167.855307 -32.318669 -1.849865 6.192464 20.935532 2.182498 0.764310 2.867124 0.023824 1.244124 4.657700 0.068408 4.934239 17.896393 0.797358 -2.646755 13.450774 0.215969 -5.090945 -10.753885 1.431861 6.597499 0.850853 1.430924 26.380747 -35.548743 -18.686586 46.518473 -28.318545 -14.263409 8.332172 -0.461619 -40.014620 -9.597929 -2.480144 -2.297684 -19.334993 -31.620291 10.571881 -47.220033 -31.149713 16.479530 -24.849411 -0.860625 32.426740 11.488721 -40.875756 5.920534 -4.019659 72.063679 -3.264328 -1.407094 3.632909 2.506129 -0.031106 0.142860 -0.004851 -3.483203 -42.107172 2.304335 27.856035 74.601143 28.036225 -26.783351 -3.173403 -1.638229 -0.440178 -1.069465 -0.213167
